OpenSim_Sub03_CSStiffKnee_GRF.mot
version=1
nRows=41
nColumns=19
inDegrees=no
endheader
time	lFx	lFy	lFz	lCOPx	lCOPy	lCOPz	rFx	rFy	rFz	rCOPx	rCOPy	rCOPz	lMx	lMy	lMz	rMx	rMy	rMz
0	23.95614681	454.07415029	34.19748563	0.50728026	0	-0.66446881	-12.15760503	318.93209006	-30.32456929	0.60646912	0	-0.34356650	0	-3.38331864	0	0	2.89284767	0
0.01000000	24.14928870	453.44858854	34.14637527	0.50709419	0	-0.66436005	-12.95296077	319.30373119	-30.47984192	0.60480945	0	-0.34344105	0	-3.43190539	0	0	2.81713545	0
0.02000000	24.28214776	452.78368736	34.08903088	0.50703554	0	-0.66430664	-13.40582869	319.65021661	-30.63703641	0.60391251	0	-0.34338534	0	-3.45665125	0	0	2.78361604	0
0.03000000	24.34942540	452.17446709	34.04438378	0.50709669	0	-0.66430118	-13.57662577	319.85292433	-30.76379422	0.60356713	0	-0.34337624	0	-3.45972158	0	0	2.77394315	0
0.04000000	24.37050554	451.68597038	34.00171542	0.50721392	0	-0.66433779	-13.61795010	319.89970185	-30.82621379	0.60347749	0	-0.34335885	0	-3.45229536	0	0	2.76571676	0
0.05000000	24.35781746	451.28653088	33.93942511	0.50731787	0	-0.66440513	-13.62202087	319.79037064	-30.83854488	0.60335354	0	-0.34332561	0	-3.44150423	0	0	2.76461449	0
0.06000000	24.31839910	450.92727684	33.88703253	0.50736350	0	-0.66443419	-13.59468775	319.59404567	-30.83028679	0.60316121	0	-0.34326519	0	-3.43429823	0	0	2.76883103	0
0.07000000	24.26433960	450.60143340	33.88350680	0.50740150	0	-0.66439428	-13.53771408	319.39290903	-30.81546270	0.60298384	0	-0.34321251	0	-3.43794960	0	0	2.78047767	0.00000000
0.08000000	24.21564921	450.35821000	33.91002197	0.50744955	0	-0.66432106	-13.46970909	319.20203250	-30.77801380	0.60282687	0	-0.34321138	0	-3.45768329	0	0	2.80118597	0
0.09000000	24.18806687	450.24332823	33.93272402	0.50745840	0	-0.66425243	-13.40314882	319.03462353	-30.68862828	0.60277841	0	-0.34321697	0	-3.48478373	0	0	2.81555294	0
0.10000000	24.18030226	450.27563284	33.93990882	0.50736924	0	-0.66420298	-13.33033429	318.89377777	-30.56762101	0.60273771	0	-0.34320098	0	-3.49128639	0	0	2.80826967	0.00000000
0.11000000	24.18604914	450.37224054	33.93314905	0.50721582	0	-0.66416481	-13.23990983	318.81612783	-30.46631085	0.60268703	0	-0.34319999	0	-3.47015201	0	0	2.78471050	0
0.12000000	24.19708936	450.45028355	33.91890119	0.50709550	0	-0.66414244	-13.14186484	318.79697627	-30.42187663	0.60247943	0	-0.34321849	0	-3.45232414	0	0	2.76412230	0
0.13000000	24.20601923	450.51827424	33.89735245	0.50703180	0	-0.66412898	-13.04633788	318.84343241	-30.45986779	0.60204611	0	-0.34327810	0	-3.44058036	0	0	2.76833906	0
0.14000000	24.20341197	450.60277924	33.88653807	0.50699462	0	-0.66412445	-12.96550070	318.96927599	-30.54443351	0.60156758	0	-0.34334618	0	-3.42253201	0	0	2.79366002	0
0.15000000	24.17788382	450.69054156	33.89135156	0.50698446	0	-0.66413046	-12.91285300	319.13737971	-30.61768938	0.60114161	0	-0.34336722	0	-3.40359751	0	0	2.82369578	0
0.16000000	24.14395401	450.74944133	33.92653996	0.50692870	0	-0.66410235	-12.89929064	319.30473168	-30.66002183	0.60075693	0	-0.34332446	0	-3.38930513	0	0	2.85844566	0
0.17000000	24.11166206	450.77293928	33.97452950	0.50686412	0	-0.66405997	-12.89751712	319.40933998	-30.66695643	0.60044910	0	-0.34325582	0	-3.37165241	0	0	2.87611176	0
0.18000000	24.09770930	450.78312248	34.01962151	0.50681492	0	-0.66402706	-12.87372548	319.46746421	-30.64543120	0.60025887	0	-0.34317658	0	-3.37509355	0	0	2.87024505	0
0.19000000	24.09983847	450.79070141	34.03775539	0.50669518	0	-0.66400721	-12.82712560	319.52438489	-30.61028523	0.60036928	0	-0.34312437	0	-3.39000472	0	0	2.84564807	0
0.20000000	24.10685547	450.79879826	34.02951004	0.50655673	0	-0.66399207	-12.78617067	319.55315926	-30.57434369	0.60061565	0	-0.34311939	0	-3.38754060	0	0	2.81936990	0
0.21000000	24.11000653	450.81617155	34.02890492	0.50644935	0	-0.66397242	-12.75778414	319.54677500	-30.55123926	0.60070298	0	-0.34313118	0	-3.36714753	0	0	2.80502249	0.00000000
0.22000000	24.10402321	450.79026211	34.02236814	0.50643514	0	-0.66397941	-12.71143164	319.49750324	-30.55970044	0.60058883	0	-0.34314515	0	-3.35159220	0	0	2.80719321	0
0.23000000	24.09040012	450.69600408	34.00615044	0.50652204	0	-0.66401403	-12.64664842	319.36240766	-30.61562597	0.60031411	0	-0.34316596	0	-3.35880864	0	0	2.82013842	0
0.24000000	24.06611262	450.60766263	34.00251578	0.50659530	0	-0.66406161	-12.59188527	319.16425749	-30.71127515	0.59995390	0	-0.34318777	0	-3.37323939	0	0	2.83716393	0
0.25000000	24.05318998	450.52151563	33.99833723	0.50660704	0	-0.66410144	-12.55429305	318.99505891	-30.79899282	0.59960815	0	-0.34316911	0	-3.37634965	0	0	2.83867160	0
0.26000000	24.07789320	450.43514123	33.97232252	0.50659780	0	-0.66412799	-12.52499898	318.94450773	-30.84003673	0.59938998	0	-0.34313860	0	-3.36569054	0	0	2.82953878	0
0.27000000	24.13012656	450.42912486	33.96050660	0.50657624	0	-0.66411721	-12.50002653	319.01186864	-30.82785091	0.59922149	0	-0.34313868	0	-3.35621143	0	0	2.81760441	-0.00000000
0.28000000	24.18158457	450.55574119	34.00094197	0.50656418	0	-0.66407902	-12.48742306	319.15829548	-30.78864864	0.59908211	0	-0.34316777	0	-3.35720438	0	0	2.80833412	0
0.29000000	24.23192521	450.81103050	34.07612137	0.50655356	0	-0.66406245	-12.48355814	319.30829149	-30.72620286	0.59898238	0	-0.34318106	0	-3.35172018	0	0	2.81312965	0
0.30000000	24.25503950	451.01666276	34.12367860	0.50652155	0	-0.66408542	-12.48181948	319.41545980	-30.63796880	0.59894200	0	-0.34316647	0	-3.34392964	0	0	2.82243506	0
0.31000000	24.23916225	451.06976138	34.14238161	0.50652096	0	-0.66410354	-12.44470028	319.41958231	-30.55526136	0.59893065	0	-0.34313927	0	-3.34001784	0	0	2.82360703	0
0.32000000	24.19644823	450.99889923	34.14863584	0.50658221	0	-0.66408843	-12.36738824	319.25501228	-30.48759872	0.59885551	0	-0.34312177	0	-3.34024197	0	0	2.82098399	0.00000000
0.33000000	24.14950685	450.92187128	34.16800520	0.50663331	0	-0.66404643	-12.26778649	318.99173099	-30.42441392	0.59879315	0	-0.34309552	0	-3.34995406	0	0	2.82007948	0
0.34000000	24.09592324	450.95457555	34.20163863	0.50662876	0	-0.66399370	-12.15774896	318.73184053	-30.36230187	0.59875070	0	-0.34307160	0	-3.35168235	0	0	2.82358958	0
0.35000000	24.03959640	451.14041462	34.23749610	0.50647580	0	-0.66392685	-12.07191585	318.52557998	-30.31075561	0.59853515	0	-0.34309338	0	-3.33270973	0	0	2.83300281	0
0.36000000	24.02079901	451.46544128	34.27002980	0.50627231	0	-0.66387885	-12.03524442	318.42595715	-30.26242156	0.59818609	0	-0.34317211	0	-3.29729271	0	0	2.83308677	-0.00000000
0.37000000	24.05617577	451.80005833	34.28583454	0.50614495	0	-0.66386716	-12.02236194	318.53056233	-30.21509007	0.59799090	0	-0.34324040	0	-3.28030198	0	0	2.82171135	-0.00000000
0.38000000	24.11345223	452.08568081	34.29184524	0.50612242	0	-0.66389765	-12.01249516	318.85325819	-30.17727178	0.59799003	0	-0.34320524	0	-3.28399287	0	0	2.80104784	0
0.39000000	24.16718182	452.30380583	34.29053201	0.50614796	0	-0.66396419	-12.01627558	319.30054101	-30.18654685	0.59798323	0	-0.34308049	0	-3.28742126	0	0	2.78101559	0
0.40000000	24.19404519	452.44784356	34.30089961	0.50614820	0	-0.66402711	-12.07317438	319.69651571	-30.27685333	0.59788617	0	-0.34293243	0	-3.28792729	0	0	2.77008301	-0.00000000
